<svg xmlns="http://www.w3.org/2000/svg" viewBox="0 0 297.81 379.68"><defs><style>.cls-1{fill:#3e374f;}</style></defs><g id="Layer_2" data-name="Layer 2"><g id="Layer_1-2" data-name="Layer 1"><path class="cls-1" d="M24.59,74.27H73.4l-15.73-64C56.29,4.61,69.06,0,86.06,0H189.25c17,0,32,4.61,33.42,10.24L241,84.93h.4c15.46,0,28.57,3,29.13,6.61l10.18,66c.56,3.64-11.63,6.61-27.1,6.61h-.94l18.11,72.45a4.13,4.13,0,0,1-1.14,3.84c4.58,1.8,7.6,4.14,8.09,6.68l20,102.83c1.11,5.66-10.65,10.29-26.11,10.29H178.11l-1.43,9.19c-.87,5.63-14.23,10.23-29.7,10.23H53.1c-15.47,0-27.4-4.6-26.53-10.23l5.11-33L25,336c-15.46,0-17.1,2.59-16.29-3.08l11.63-81.3c-3.76-1.14-5.75-2.62-5.13-4.24l22.71-59.15L.25,84.66C-1.83,79,9.13,74.27,24.59,74.27Z"/></g></g></svg>