<?xml version="1.0" encoding="utf-8"?>
<!-- Generator: Adobe Illustrator 24.1.0, SVG Export Plug-In . SVG Version: 6.00 Build 0)  -->
<svg version="1.1" id="Layer_1" xmlns="http://www.w3.org/2000/svg" xmlns:xlink="http://www.w3.org/1999/xlink" x="0px" y="0px"
	 viewBox="0 0 388.6 181.1" style="enable-background:new 0 0 388.6 181.1;" xml:space="preserve">
<style type="text/css">
	.st0{fill:#7B7480;}
	.st1{fill:#554461;}
	.st2{fill:#705849;}
	.st3{fill:#694631;}
	.st4{fill:#473C35;}
	.st5{fill:#575045;}
	.st6{fill:#42332B;}
	.st7{fill:#543827;}
</style>
<g>
	<polygon class="st0" points="388.6,75.4 362.8,38.6 270,17.3 265.3,17.3 264.5,20.9 301.9,32 304.8,42.7 296,52.3 289.1,60.2 
		295.1,73.9 285.8,83.7 248.9,79 222.9,89.4 222.4,91.9 212.2,96.8 209.2,94.8 207.5,95.5 202.8,90.6 200.5,89 200.3,87.9 189,75.8 
		163.8,82.6 155.6,88.3 143.6,88 142.9,88.2 98.8,81.1 90.8,68.7 91.3,66.8 87.5,59.5 93.4,58.7 94.1,55.6 123.7,45.8 121.3,44.5 
		114.5,46.8 108.5,40.9 112.2,33.1 146.9,18.6 48,38.6 0,77.9 43.5,117.3 130.6,117.3 232.2,134.3 340.7,117.3 	"/>
	<polygon class="st0" points="64.7,156.6 88,175.7 132.1,181.1 187.5,169 128.5,158 	"/>
	<polygon class="st0" points="269.6,161.4 316.5,154.9 345.3,136.9 239.1,154.9 	"/>
	<polygon class="st1" points="176.2,74.1 163.8,82.6 189,75.8 200.3,87.9 194.3,54.4 	"/>
	<polygon class="st1" points="263.2,46.9 289.1,60.2 296,52.3 295.2,53.2 	"/>
	<polygon class="st1" points="143.9,74.6 153.5,64.7 116.8,79.1 98.8,81.1 142.9,88.2 143.6,88 142.9,88 	"/>
	<polygon class="st1" points="220.2,54.1 225.2,76 222.9,89.4 248.9,79 285.8,83.7 264.4,75.2 	"/>
	<polygon class="st1" points="207.5,95.5 209.2,94.8 202.8,90.6 	"/>
	<polygon class="st1" points="87.5,59.5 91.3,66.8 93.4,58.7 	"/>
	<polygon class="st1" points="172.2,27.2 121.3,44.5 123.7,45.8 174.5,29 	"/>
	<polygon class="st2" points="252.3,17.3 265.3,17.3 267.8,7.3 253.7,2.8 234.2,9.3 232.5,11.4 	"/>
	<polygon class="st2" points="264.5,20.9 265.3,17.3 252.3,17.3 	"/>
	<polygon class="st2" points="90.8,68.7 98.8,81.1 91.3,66.8 	"/>
	<polygon class="st2" points="123.7,45.8 94.1,55.6 93.4,58.7 135.5,52.4 	"/>
	<polygon class="st2" points="153.5,64.7 182.3,35.2 174.5,29 123.7,45.8 135.5,52.4 93.4,58.7 91.3,66.8 98.8,81.1 116.8,79.1 	"/>
	<polygon class="st3" points="201.5,15.5 211.5,5.2 205.5,3.4 197.8,11.7 198.1,13.8 	"/>
	<polygon class="st3" points="241.5,30.1 251.7,30.8 304.5,42.6 296,52.3 304.8,42.7 301.9,32 264.5,20.9 264.4,21.1 	"/>
	<polygon class="st3" points="251.7,30.8 241.5,30.1 235,32.6 263.2,46.9 295.2,53.2 296,52.3 304.5,42.6 	"/>
	<polygon class="st3" points="252.3,17.3 232.5,11.4 227.8,17.3 	"/>
	<polygon class="st3" points="227.8,17.3 224.1,21.9 220.9,25.4 228.1,29.1 241.5,30.1 264.4,21.1 264.5,20.9 252.3,17.3 	"/>
	<polygon class="st3" points="241.5,30.1 228.1,29.1 235,32.6 	"/>
	<polygon class="st4" points="196.6,13 197.8,11.7 197,5.6 191.2,0 175.6,6.5 183,6.1 	"/>
	<polygon class="st4" points="162.9,17.3 162.9,11.9 146.9,18.6 153.3,17.3 	"/>
	<polygon class="st4" points="108.5,40.9 114.5,46.8 121.3,44.5 115.5,41.3 170.5,25.8 162.9,19.8 162.9,17.3 153.3,17.3 
		146.9,18.6 112.2,33.1 	"/>
	<polygon class="st4" points="170.5,25.8 115.5,41.3 121.3,44.5 172.2,27.2 	"/>
	<polygon class="st4" points="198.1,13.8 197.8,11.7 196.6,13 	"/>
	<polygon class="st5" points="162.9,7.3 162.9,11.9 175.6,6.5 	"/>
	<polygon class="st5" points="188.9,24.3 194.8,18.6 195.1,17.6 190.8,20.9 177.9,25.3 184.3,25.8 	"/>
	<polygon class="st5" points="295.1,73.9 289.1,60.2 285.8,83.7 	"/>
	<polygon class="st5" points="219.9,38.6 216.9,39.7 220.2,54.1 264.4,75.2 285.8,83.7 289.1,60.2 263.2,46.9 	"/>
	<polygon class="st5" points="177.9,25.3 172.2,27.2 174.5,29 184.3,25.8 	"/>
	<polygon class="st5" points="188.9,24.3 184.3,25.8 189.2,26.1 188.9,24.3 	"/>
	<polygon class="st5" points="216.9,39.7 219.9,38.6 216.5,37.9 	"/>
	<polygon class="st5" points="189.2,26.1 184.3,25.8 174.5,29 182.3,35.2 189.5,27.8 	"/>
	<polygon class="st5" points="195.5,17.3 196.1,17.3 197,16.5 200.5,16.5 201.5,15.5 198.1,13.8 198.3,15.1 	"/>
	<polygon class="st5" points="196.1,17.3 195.5,17.3 195.1,17.6 194.8,18.6 	"/>
	<polygon class="st5" points="263.2,46.9 235,32.6 219.9,38.6 	"/>
	<polygon class="st5" points="228.1,29.1 220.9,25.4 218.2,28.3 	"/>
	<polygon class="st5" points="215.1,31.8 216.5,37.9 219.9,38.6 235,32.6 228.1,29.1 218.2,28.3 	"/>
	<polygon class="st5" points="195.2,17.3 196.3,13.3 196.6,13 183,6.1 175.6,6.5 162.9,11.9 162.9,17.3 	"/>
	<polygon class="st5" points="177.9,25.3 190.8,20.9 195.1,17.6 195.2,17.3 162.9,17.3 162.9,19.8 170.5,25.8 173.6,25 	"/>
	<polygon class="st5" points="177.9,25.3 173.6,25 170.5,25.8 172.2,27.2 	"/>
	<polygon class="st5" points="198.3,15.1 198.1,13.8 196.6,13 196.3,13.3 195.2,17.3 195.5,17.3 	"/>
	<polygon class="st5" points="195.5,17.3 195.2,17.3 195.1,17.6 	"/>
	<polygon class="st6" points="234.2,9.3 235.3,7.8 226.4,1.3 211.7,5 211.5,5.2 230,10.7 	"/>
	<polygon class="st6" points="155.6,88.3 163.8,82.6 143.6,88 	"/>
	<polygon class="st6" points="194.3,54.4 193.3,49 153.5,64.7 143.9,74.6 142.9,88 143.6,88 163.8,82.6 176.2,74.1 	"/>
	<polygon class="st6" points="232.5,11.4 234.2,9.3 230,10.7 	"/>
	<polygon class="st6" points="185,37.4 182.3,35.2 153.5,64.7 193.3,49 191.8,40.6 	"/>
	<polygon class="st6" points="203.4,16.5 210,16.5 210.2,17.2 230,10.7 211.5,5.2 201.5,15.5 	"/>
	<polygon class="st6" points="227.8,17.3 232.5,11.4 230,10.7 210.2,17.2 210.3,17.3 	"/>
	<polygon class="st6" points="211.5,20.6 220.9,25.4 224.1,21.9 227.8,17.3 210.3,17.3 	"/>
	<polygon class="st6" points="191.8,40.6 189.5,27.8 182.3,35.2 185,37.4 	"/>
	<polygon class="st6" points="203.4,16.5 201.5,15.5 200.5,16.5 	"/>
	<polygon class="st6" points="214.1,28 218.2,28.3 220.9,25.4 211.5,20.6 	"/>
	<polygon class="st6" points="215.1,31.8 218.2,28.3 214.1,28 214.3,28.6 	"/>
	<polygon class="st7" points="200.5,89 202.8,90.6 200.3,87.9 	"/>
	<polygon class="st7" points="212.2,96.8 222.4,91.9 222.9,89.4 209.2,94.8 	"/>
	<polygon class="st7" points="220.2,54.1 202.3,45.6 194.3,54.4 200.3,87.9 202.8,90.6 209.2,94.8 222.9,89.4 225.2,76 	"/>
	<polygon class="st7" points="194.8,18.6 188.9,24.3 193.6,22.7 	"/>
	<polygon class="st7" points="202.3,45.6 220.2,54.1 216.9,39.7 202.5,45.4 	"/>
	<polygon class="st7" points="193.3,23.9 193.6,22.7 188.9,24.3 188.9,24.3 189.2,26.1 191,26.3 	"/>
	<polygon class="st7" points="210.5,36.7 202.5,45.4 216.9,39.7 216.5,37.9 	"/>
	<polygon class="st7" points="189.2,26.1 189.5,27.8 191,26.3 	"/>
	<polygon class="st7" points="200.5,16.5 197,16.5 196.1,17.3 199.7,17.3 	"/>
	<polygon class="st7" points="193.6,22.7 194.8,22.3 199.7,17.3 196.1,17.3 194.8,18.6 	"/>
	<polygon class="st7" points="194.8,22.3 193.6,22.7 193.3,23.9 	"/>
	<polygon class="st7" points="216.5,37.9 215.1,31.8 210.5,36.7 	"/>
	<polygon class="st7" points="193.3,49 194.3,54.4 202.3,45.6 202.2,45.5 	"/>
	<polygon class="st7" points="191.8,40.6 193.3,49 202.2,45.5 	"/>
	<polygon class="st7" points="210,17.3 210.2,17.2 210,16.5 203.4,16.5 205,17.3 	"/>
	<polygon class="st7" points="210,17.3 205,17.3 206.9,18.3 	"/>
	<polygon class="st7" points="210.3,17.3 210.2,17.2 210,17.3 	"/>
	<polygon class="st7" points="211.5,20.6 210.3,17.3 210,17.3 206.9,18.3 	"/>
	<polygon class="st7" points="202.2,45.5 202.3,45.6 202.5,45.4 	"/>
	<polygon class="st7" points="192.6,26.4 193.3,23.9 191,26.3 	"/>
	<polygon class="st7" points="192.1,28 192.6,26.4 191,26.3 189.5,27.8 191.8,40.6 202.2,45.5 202.5,45.4 210.5,36.7 200.6,34.8 	
		"/>
	<polygon class="st7" points="199.7,17.3 205,17.3 203.4,16.5 200.5,16.5 	"/>
	<polygon class="st7" points="206.9,18.3 205,17.3 199.7,17.3 194.8,22.3 	"/>
	<polygon class="st7" points="194.8,22.3 193.3,23.9 192.6,26.4 214.1,28 211.5,20.6 206.9,18.3 	"/>
	<polygon class="st7" points="192.1,28 200.6,34.8 210.5,36.7 215.1,31.8 214.3,28.6 214.1,28 192.6,26.4 	"/>
</g>
</svg>
