<svg xmlns="http://www.w3.org/2000/svg" xmlns:xlink="http://www.w3.org/1999/xlink" viewBox="0 0 220.81 470.1"><defs><style>.cls-1{fill:url(#linear-gradient);}</style><linearGradient id="linear-gradient" x1="110.4" y1="-459.02" x2="110.4" y2="519.84" gradientTransform="matrix(-1, 0, 0, 1, 220.81, 0)" gradientUnits="userSpaceOnUse"><stop offset="0.12" stop-color="#3e374f"/><stop offset="1" stop-color="#3e374f" stop-opacity="0"/></linearGradient></defs><g id="Layer_2" data-name="Layer 2"><g id="Layer_1-2" data-name="Layer 1"><path class="cls-1" d="M0,374.71,7.79,334.8c.19-1,1.36-1.9,3.14-2.6a1.59,1.59,0,0,1-.44-1.49l7-28.12h-.37c-6,0-10.74-1.16-10.52-2.57l4-25.63c.22-1.41,5.31-2.56,11.31-2.56h.16l7.12-29c.54-2.18,6.37-4,13-4H57.52l4.64-18.57h-.37c-6,0-10.73-1.15-10.52-2.56l4-25.63c.21-1.41,5.3-2.57,11.31-2.57h.15l2.77-11.26H58.3c-6,0-10.56-2.29-10.14-5.09l7.76-50.88c.2-1.26,1.37-2.42,3.14-3.31a2.47,2.47,0,0,1-.44-1.9l7-35.85h-.36c-6,0-10.74-1.47-10.52-3.27L58.72,45.3C58.94,43.5,64,42,70,42h.15l7.12-37C77.84,2.28,83.68,0,90.28,0h40.05c6.6,0,11.56,2.28,11,5.07l-6.1,31.68H154.2c6,0,10.25,2.32,9.44,5.15l-3.33,11.67h9.23c6.6,0,11.56,2.28,11,5.07l-6.1,31.68H193.4c6,0,10.26,2.32,9.45,5.15L188.23,146.7,197,176c.24.79-.53,1.53-2,2.09l4.52,40.24c.23,2.05-.06,1.91-2.6,1.69l-4.66,19h18.95c6,0,10.26,1.82,9.45,4l-14.62,40.19,8.81,23c.24.62-.53,1.2-2,1.64l4.51,31.56c.32,2.2-.32,1.2-6.32,1.2l-2.59.18,2,12.81c.34,2.18-4.29,4-10.3,4h-1.54l-13.91,38.25,8.81,23c.24.63-.53,1.2-2,1.65l4.51,31.56c.32,2.2-.32,1.2-6.32,1.2l-2.59.17,2,12.82c.34,2.18-4.29,4-10.3,4H142.4c-6,0-11.19-1.79-11.53-4l-.55-3.57H94c-6,0-10.57-1.8-10.14-4l1.6-8.26H71c-6,0-11.19-1.79-11.53-4l-.55-3.57H22.59c-6,0-10.57-1.8-10.14-4l7.76-39.92c.19-1,1.37-1.9,3.14-2.59a1.62,1.62,0,0,1-.44-1.5l4-16.05H10.17C4.16,378.71-.4,376.91,0,374.71Z"/></g></g></svg>