<svg xmlns="http://www.w3.org/2000/svg" xmlns:xlink="http://www.w3.org/1999/xlink" viewBox="0 0 220.81 470.1"><defs><style>.cls-1{fill:url(#linear-gradient);}</style><linearGradient id="linear-gradient" x1="110.4" y1="-459.02" x2="110.4" y2="519.84" gradientUnits="userSpaceOnUse"><stop offset="0.21" stop-color="#3e374f"/><stop offset="1" stop-color="#3e374f" stop-opacity="0"/></linearGradient></defs><g id="Layer_2" data-name="Layer 2"><g id="Layer_1-2" data-name="Layer 1"><path class="cls-1" d="M220.78,374.71,213,334.8c-.19-1-1.37-1.9-3.14-2.6a1.62,1.62,0,0,0,.44-1.49l-7-28.12h.36c6,0,10.74-1.16,10.52-2.57l-3.95-25.63c-.21-1.41-5.3-2.56-11.31-2.56h-.15l-7.12-29c-.54-2.18-6.38-4-13-4H163.29l-4.64-18.57H159c6,0,10.74-1.15,10.52-2.56l-3.95-25.63c-.22-1.41-5.31-2.57-11.31-2.57h-.15l-2.77-11.26H162.5c6,0,10.57-2.29,10.14-5.09l-7.76-50.88c-.19-1.26-1.36-2.42-3.14-3.31a2.43,2.43,0,0,0,.44-1.9l-7-35.85h.37c6,0,10.74-1.47,10.52-3.27L162.09,45.3c-.22-1.8-5.31-3.27-11.31-3.27h-.16l-7.12-37C143,2.28,137.13,0,130.53,0H90.47c-6.6,0-11.55,2.28-11,5.07l6.11,31.68h-19c-6,0-10.25,2.32-9.45,5.15l3.33,11.67H51.27c-6.6,0-11.56,2.28-11,5.07l6.11,31.68h-19c-6,0-10.25,2.32-9.44,5.15L32.58,146.7,23.76,176c-.24.79.53,1.53,2,2.09l-4.51,40.24c-.23,2.05.05,1.91,2.59,1.69l4.66,19H9.55c-6,0-10.26,1.82-9.45,4l14.62,40.19-8.81,23c-.24.62.53,1.2,2,1.64L3.38,339.36c-.31,2.2.32,1.2,6.32,1.2l2.6.18-2,12.81c-.34,2.18,4.3,4,10.3,4h1.55l13.91,38.25-8.81,23c-.24.63.53,1.2,2,1.65l-4.52,31.56c-.31,2.2.32,1.2,6.33,1.2l2.59.17-2,12.82c-.33,2.18,4.3,4,10.3,4H78.41c6,0,11.19-1.79,11.53-4l.55-3.57h36.3c6,0,10.57-1.8,10.14-4l-1.61-8.26h14.51c6,0,11.2-1.79,11.54-4l.55-3.57h36.3c6,0,10.56-1.8,10.14-4l-7.76-39.92c-.2-1-1.37-1.9-3.14-2.59a1.65,1.65,0,0,0,.44-1.5l-4-16.05h16.76C216.64,378.71,221.21,376.91,220.78,374.71Z"/></g></g></svg>