<?xml version="1.0" encoding="utf-8"?>
<!-- Generator: Adobe Illustrator 24.1.0, SVG Export Plug-In . SVG Version: 6.00 Build 0)  -->
<svg version="1.1" id="Layer_1" xmlns="http://www.w3.org/2000/svg" xmlns:xlink="http://www.w3.org/1999/xlink" x="0px" y="0px"
	 viewBox="0 0 297.8 379.7" style="enable-background:new 0 0 297.8 379.7;" xml:space="preserve">
<style type="text/css">
	.st0{fill:#3E374F;}
</style>
<g id="Layer_2_1_">
	<g id="Layer_1-2">
		<path class="st0" d="M273.2,74.3h-48.8l15.7-64C241.5,4.6,228.7,0,211.7,0H108.6c-17,0-32,4.6-33.4,10.2L56.8,84.9h-0.4
			c-15.5,0-28.6,3-29.1,6.6l-10.2,66c-0.6,3.6,11.6,6.6,27.1,6.6h0.9L27,236.6c-0.3,1.4,0.1,2.8,1.1,3.8c-4.6,1.8-7.6,4.1-8.1,6.7
			L0.1,350c-1.1,5.7,10.6,10.3,26.1,10.3h93.5l1.4,9.2c0.9,5.6,14.2,10.2,29.7,10.2h93.9c15.5,0,27.4-4.6,26.5-10.2l-5.1-33l6.7-0.5
			c15.5,0,17.1,2.6,16.3-3.1l-11.6-81.3c3.8-1.1,5.7-2.6,5.1-4.2l-22.7-59.1l37.7-103.6C299.6,79,288.7,74.3,273.2,74.3z"/>
	</g>
</g>
</svg>
